<?xml version="1.0" encoding="UTF-8" standalone="no"?>
<!-- Created with Inkscape (http://www.inkscape.org/) -->

<svg
   xmlns:dc="http://purl.org/dc/elements/1.1/"
   xmlns:cc="http://creativecommons.org/ns#"
   xmlns:rdf="http://www.w3.org/1999/02/22-rdf-syntax-ns#"
   xmlns:svg="http://www.w3.org/2000/svg"
   xmlns="http://www.w3.org/2000/svg"
   xmlns:sodipodi="http://sodipodi.sourceforge.net/DTD/sodipodi-0.dtd"
   xmlns:inkscape="http://www.inkscape.org/namespaces/inkscape"
   width="428.75"
   height="425"
   id="svg3143"
   version="1.1"
   inkscape:version="0.47 r22583"
   sodipodi:docname="logo.svg">
  <defs
     id="defs3145">
    <inkscape:perspective
       sodipodi:type="inkscape:persp3d"
       inkscape:vp_x="0 : 212.5 : 1"
       inkscape:vp_y="0 : 1000 : 0"
       inkscape:vp_z="428.75 : 212.5 : 1"
       inkscape:persp3d-origin="214.375 : 141.66667 : 1"
       id="perspective3152" />
    <inkscape:perspective
       id="perspective3162"
       inkscape:persp3d-origin="0.5 : 0.33333333 : 1"
       inkscape:vp_z="1 : 0.5 : 1"
       inkscape:vp_y="0 : 1000 : 0"
       inkscape:vp_x="0 : 0.5 : 1"
       sodipodi:type="inkscape:persp3d" />
  </defs>
  <sodipodi:namedview
     pagecolor="#ffffff"
     bordercolor="#666666"
     borderopacity="1.0"
     inkscape:pageopacity="0.0"
     inkscape:pageshadow="2"
     inkscape:zoom="1.6"
     inkscape:cx="252.3047"
     inkscape:cy="232.88844"
     inkscape:document-units="pt"
     inkscape:current-layer="g14"
     id="namedview3147"
     showgrid="false"
     units="cm"
     inkscape:window-width="1280"
     inkscape:window-height="947"
     inkscape:window-x="0"
     inkscape:window-y="24"
     inkscape:window-maximized="1" />
  <metadata
     id="metadata3149">
    <rdf:RDF>
      <cc:Work
         rdf:about="">
        <dc:format>image/svg+xml</dc:format>
        <dc:type
           rdf:resource="http://purl.org/dc/dcmitype/StillImage" />
        <dc:title></dc:title>
      </cc:Work>
    </rdf:RDF>
  </metadata>
  <g
     inkscape:label="Layer 1"
     inkscape:groupmode="layer"
     id="layer1"
     transform="translate(0,3.125e-4)">
    <g
       id="g14"
       transform="matrix(1.25,0,0,1.25,-172.06026,-294.9495)">
      <path
         id="path16"
         d="m 376.583,385.535 c -2.822,0.044 -17.406,-5.247 -21.133,-6.485 -3.558,-1.183 -6.91,-2.147 -10.371,-3.445 -2.86,-1.072 -5.925,-4.189 -5.984,-7.971 -0.038,-2.493 6.861,-19.331 8.119,-22.623 1.206,-3.154 1.773,-5.99 4.503,-7.927 2.296,-1.628 4.014,-1.637 6.562,-1.676 1.894,-0.03 3.775,0.873 5.272,1.388 1.617,0.557 3.303,1.1 5.005,1.665 l 15.203,5.044 c 5.146,1.61 10.945,3.235 11.047,9.819 0.033,2.099 -2.222,7.191 -3.044,9.34 l -7.005,18.267 c -1.331,2.49 -4.446,4.546 -8.174,4.604 z m -64.45,-22.762 c 0.097,6.237 4.639,12.025 10.234,14.315 4.099,1.677 13.641,4.467 18.377,6.159 2.946,1.052 5.973,2.016 9.117,3.032 3.167,1.023 6.194,2.124 9.29,3.096 4.491,1.41 14.813,5.563 19.018,5.498 l 2.64,-0.041 c 4.603,-0.072 9.722,-3.281 11.675,-5.939 2.392,-3.253 3.865,-8.131 5.363,-12.056 l 11.96,-31.429 c 2.669,-6.98 3.615,-11.343 -1.613,-17.844 -4.328,-5.381 -12.682,-6.594 -19.35,-9.058 l -6.585,-2.229 c -8.699,-2.73 -17.426,-5.92 -26.126,-8.651 -4.465,-1.401 -8.339,-3.394 -14.316,-2.358 -4.902,0.85 -8.474,3.476 -10.828,6.76 -1.869,2.609 -13.019,33.089 -14.706,37.511 -1.245,3.261 -4.202,9.874 -4.15,13.234 z"
         style="fill:#000000;stroke:none" />
      <path
         id="path18"
         d="m 219.529,381.978 c -0.068,-4.379 2.012,-7.246 5.584,-8.77 5.046,-2.153 14.377,-5.11 19.953,-7.37 1.957,-0.793 8.669,-3.357 10.408,-3.384 2.912,-0.045 4.05,-0.157 6.85,1.712 1.365,0.911 2.195,2.115 2.84,3.654 1.314,3.135 2.574,6.172 3.914,9.375 l 5.842,13.97 c 1.313,3.382 0.346,7.036 -2.356,9.366 -1.964,1.694 -6.277,3.059 -9.025,4.016 -1.689,0.588 -3.212,1.206 -4.953,1.818 -1.535,0.539 -3.11,1.169 -4.774,1.754 l -9.727,3.572 c -1.551,0.556 -3.367,1.405 -5.346,1.436 -8.01,0.125 -9.29,-6.498 -12,-12.982 -1.078,-2.582 -7.184,-16.505 -7.21,-18.167 z m -17.778,-16.287 c 0.051,3.239 1.563,6.16 2.569,8.568 l 9.939,23.885 c 1.142,2.729 5.452,13.42 6.644,15.825 2.478,4.999 8.516,8.665 13.901,8.582 5.406,-0.085 4.77,-0.022 9.96,-1.929 l 33.24,-12.218 c 2.177,-0.825 4.564,-1.682 6.745,-2.444 l 6.687,-2.501 c 3.408,-1.431 5.551,-3.005 7.723,-5.75 2.052,-2.595 3.416,-6.311 3.091,-9.849 -0.313,-3.399 -1.051,-4.556 -2.114,-7.102 l -16.067,-38.536 c -1.574,-3.767 -2.77,-5.371 -5.841,-7.631 -5.236,-3.854 -11.896,-3.416 -17.778,-1.352 -2.417,0.848 -4.336,1.609 -6.743,2.446 l -13.247,4.887 c -7.707,2.686 -15.714,5.935 -23.33,8.588 -5.372,1.871 -10.705,3.931 -13.492,9.378 -0.967,1.89 -1.929,4.405 -1.887,7.153 z"
         style="fill:#e00053;stroke:none;fill-opacity:1" />
      <path
         id="path20"
         d="m 283.231,449.163 c -0.058,-3.685 2.43,-6.957 5.662,-8.221 7.589,-2.968 17.925,-6.626 25.664,-9.398 1.789,-0.641 3.241,-1.403 5.586,-1.44 3.753,-0.058 6.751,1.795 8.154,4.269 0.771,1.361 3.08,7.113 3.849,8.953 1.174,2.811 7.182,16.354 7.214,18.407 0.128,8.217 -9.855,9.555 -15.558,11.866 -3.374,1.368 -6.714,2.344 -10.055,3.727 -1.695,0.701 -3.519,1.268 -5.117,1.895 -3.805,1.494 -7.852,2.614 -11.687,0.178 -1.306,-0.829 -2.269,-1.863 -2.976,-3.27 -1.713,-3.408 -7.457,-17.745 -9.29,-22.118 -0.568,-1.356 -1.419,-3.097 -1.446,-4.848 z m 16.486,41.274 c 4.123,-0.064 7.129,-1.365 10.078,-2.523 8.545,-3.356 19.074,-6.745 27.62,-10.101 l 13.792,-5.069 c 6.16,-2.205 11.155,-4.362 13.912,-11.098 2.167,-5.297 0.36,-9.312 -1.631,-14.075 L 353.48,423.512 c -1.126,-2.758 -2.213,-5.28 -3.351,-8.003 -0.918,-2.197 -3.101,-7.797 -4.431,-9.573 -3.472,-4.639 -8.667,-6.582 -14.75,-6.487 -3.903,0.06 -14.145,4.131 -18.016,5.7 -3.815,1.546 -13.275,4.906 -17.536,6.404 -2.813,0.989 -5.81,2.204 -8.651,3.197 -2.978,1.04 -5.93,2.251 -8.833,3.257 -4.346,1.505 -7.755,3.858 -10.127,7.675 -4.851,7.81 -0.714,13.952 2.808,22.375 2.395,5.728 4.627,11.179 7.019,16.901 1.211,2.896 2.28,5.451 3.491,8.347 0.642,1.536 1.145,2.741 1.78,4.26 1.786,4.268 2.919,7.623 7.503,10.305 2.318,1.355 5.76,2.623 9.331,2.567 z"
         style="fill:#e00053;stroke:none;fill-opacity:1" />
    </g>
  </g>
</svg>
